{"title":"Star Trek: The Next Generation MicroHD 1080p Full Series (ES/EN)","uid":14466748,"size":325344539167,"categoryP":"video","categoryS":"hd___tv_shows","magnet":"?xt=urn:btih:822205e4100ddaa4f537ec1fdfb9d1c51a533809&amp;dn=Star+Trek%3A+The+Next+Generation+MicroHD+1080p+Full+Series+%28ES%2FEN%29&amp;tr=udp%3A%2F%2Ftracker.leechers-paradise.org%3A6969&amp;tr=udp%3A%2F%2Fzer0day.ch%3A1337&amp;tr=udp%3A%2F%2Fopen.demonii.com%3A1337&amp;tr=udp%3A%2F%2Ftracker.coppersurfer.tk%3A6969&amp;tr=udp%3A%2F%2Fexodus.desync.com%3A6969","seeders":1,"leechers":9,"uploader":"romanturbo","files":175,"time":1461867339,"description":"HI guys, I want to share with u my own Star Trek TNG Series rip.\r\nIts MicroHD 1080p quality, ripped directly from the bluray. In includes Spanish and English AC3 audio (last season is Latino and English)\r\n\r\nThe first season is a webdl 720p quality, but the rest of them are microHD 1080p.\r\n\r\nIt took me a while to rip , so I hope u enjoy it.\r\n\r\nMediainfo:\r\n\r\nFormat : Matroska\r\nFormat version : Version 2\r\nFile size : 1.54 GiB\r\nDuration : 45mn 32s\r\nOverall bit rate : 4 832 Kbps\r\nMovie name : Star.trek.TNG.s02e01.The.Child (BDRemux)\r\nEncoded date : UTC 2015-12-22 15:55:45\r\nWriting application : mkvmerge v4.4.0 ('Die Wiederkehr') realizado en Oct 31 2010 21:52:48\r\nWriting library : Lavf55.12.0\r\n\r\nVideo\r\nID : 3\r\nFormat : AVC\r\nFormat/Info : Advanced Video Codec\r\nFormat profile :   \r\nFormat settings, CABAC : Yes\r\nFormat settings, ReFrames : 5 frames\r\nCodec ID : V_MPEG4/ISO/AVC\r\nDuration : 45mn 32s\r\nBit rate : 4 000 Kbps\r\nWidth : 1 456 pixels\r\nHeight : 1 080 pixels\r\nDisplay aspect ratio : 4:3\r\nFrame rate mode : Constant\r\nFrame rate : 23.976 fps\r\nColor space : YUV\r\nChroma subsampling : 4:2:0\r\nBit depth : 8 bits\r\nScan type : Progressive\r\nBits/(Pixel*Frame) : 0.106\r\nStream size : 1.24 GiB (81%)\r\nWriting library : x264 core 142 r2479 dd79a61\r\nEncoding settings : cabac=1 / ref=5 / deblock=1:-3:-3 / analyse=0x3:0x113 / me=umh / subme=8 / psy=1 / psy_rd=1.00:0.00 / mixed_ref=1 / me_range=16 / chroma_me=1 / trellis=2 / 8x8dct=1 / cqm=0 / deadzone=21,11 / fast_pskip=1 / chroma_qp_offset=-2 / threads=6 / lookahead_threads=1 / sliced_threads=0 / nr=0 / decimate=1 / interlaced=0 / bluray_compat=0 / constrained_intra=0 / bframes=4 / b_pyramid=2 / b_adapt=2 / b_bias=0 / direct=1 / weightb=1 / open_gop=0 / weightp=2 / keyint=240 / keyint_min=24 / scenecut=40 / intra_refresh=0 / rc_lookahead=40 / rc=2pass / mbtree=1 / bitrate=4000 / ratetol=1.0 / qcomp=0.60 / qpmin=0 / qpmax=69 / qpstep=4 / cplxblur=20.0 / qblur=0.5 / vbv_maxrate=62500 / vbv_bufsize=78125 / nal_hrd=none / filler=0 / ip_ratio=1.40 / aq=1:1.10\r\nDefault : Yes\r\nForced : No\r\nColor primaries : BT.709\r\nTransfer characteristics : BT.709\r\nMatrix coefficients : BT.709\r\n\r\nAudio #1\r\nID : 2\r\nFormat : AC-3\r\nFormat/Info : Audio Coding 3\r\nMode extension : CM (complete main)\r\nFormat settings, Endianness : Big\r\nCodec ID : A_AC3\r\nDuration : 45mn 32s\r\nBit rate mode : Constant\r\nBit rate : 192 Kbps\r\nChannel(s) : 2 channels\r\nChannel positions : Front: L R\r\nSampling rate : 48.0 KHz\r\nBit depth : 16 bits\r\nCompression mode : Lossy\r\nDelay relative to video : -83ms\r\nStream size : 62.5 MiB (4%)\r\nDefault : Yes\r\nForced : No\r\n\r\nAudio #2\r\nID : 4\r\nFormat : AC-3\r\nFormat/Info : Audio Coding 3\r\nMode extension : CM (complete main)\r\nFormat settings, Endianness : Big\r\nCodec ID : A_AC3\r\nDuration : 45mn 32s\r\nBit rate mode : Constant\r\nBit rate : 640 Kbps\r\nChannel(s) : 6 channels\r\nChannel positions : Front: L C R, Side: L R, LFE\r\nSampling rate : 48.0 KHz\r\nBit depth : 16 bits\r\nCompression mode : Lossy\r\nDelay relative to video : -83ms\r\nStream size : 208 MiB (13%)\r\nDefault : No\r\nForced : No\r\n\r\nText\r\nID : 1\r\nFormat : UTF-8\r\nCodec ID : S_TEXT/UTF8\r\nCodec ID/Info : UTF-8 Plain Text\r\nTitle : Original\r\nLanguage : English\r\nDefault : No\r\nForced : No\r\n\r\nMenu\r\n00:00:00.000 : :00:00:00.000\r\n00:06:11.454 : :00:06:11.246\r\n00:13:02.698 : :00:13:02.532\r\n00:22:43.779 : :00:22:43.571\r\n00:32:39.874 : :00:32:39.791\r\n00:37:51.352 : :00:37:51.227\r\n00:44:41.095 : :00:44:40.928","torrent":{"xt":"urn:btih:822205e4100ddaa4f537ec1fdfb9d1c51a533809","amp;dn":"Star+Trek%3A+The+Next+Generation+MicroHD+1080p+Full+Series+%28ES%2FEN%29","amp;tr":["udp%3A%2F%2Ftracker.leechers-paradise.org%3A6969","udp%3A%2F%2Fzer0day.ch%3A1337","udp%3A%2F%2Fopen.demonii.com%3A1337","udp%3A%2F%2Ftracker.coppersurfer.tk%3A6969","udp%3A%2F%2Fexodus.desync.com%3A6969"],"infoHash":"822205e4100ddaa4f537ec1fdfb9d1c51a533809","infoHashBuffer":{"type":"Buffer","data":[130,34,5,228,16,13,218,164,245,55,236,31,223,185,209,197,26,83,56,9]},"announce":[],"urlList":[]}}